<?xml version="1.0" standalone="no"?>
<!DOCTYPE svg PUBLIC "-//W3C//DTD SVG 20010904//EN"
 "http://www.w3.org/TR/2001/REC-SVG-20010904/DTD/svg10.dtd">
<svg version="1.0" xmlns="http://www.w3.org/2000/svg"
 width="495.000000pt" height="501.000000pt" viewBox="0 0 495.000000 501.000000"
 preserveAspectRatio="xMidYMid meet">

<g transform="translate(0.000000,501.000000) scale(0.100000,-0.100000)"
fill="#000000" stroke="none">
<path d="M2655 3611 c-38 -16 -56 -49 -168 -302 l-113 -254 -127 -63 c-99 -48
-130 -69 -142 -92 -11 -22 -13 -35 -5 -49 18 -34 60 -34 162 -1 52 16 104 30
114 30 11 0 82 -63 174 -156 85 -86 164 -159 175 -164 17 -6 78 9 93 24 2 2
-40 70 -93 152 -106 165 -117 190 -90 211 29 20 122 53 200 70 220 47 438 -61
491 -245 49 -168 -48 -306 -245 -348 -143 -30 -322 -10 -641 73 -118 31 -290
75 -383 99 -404 104 -588 98 -764 -25 -163 -115 -267 -320 -234 -465 31 -141
114 -175 439 -183 212 -5 214 -6 224 -29 8 -18 4 -64 -21 -201 -17 -98 -31
-186 -31 -195 0 -14 7 -16 38 -11 20 3 40 9 45 13 4 3 47 111 96 240 49 128
95 238 103 245 7 6 60 24 118 38 80 21 110 33 128 53 26 30 28 47 6 68 -26 27
-63 30 -182 14 l-116 -15 -95 81 c-53 44 -144 122 -203 173 -97 83 -112 93
-147 93 -22 0 -43 -5 -46 -10 -4 -6 41 -70 99 -144 141 -178 152 -198 136
-237 -20 -48 -62 -64 -160 -63 -247 2 -400 166 -316 338 48 99 158 176 280
196 123 20 257 -21 694 -209 403 -174 649 -265 825 -305 15 -4 27 -11 27 -17
0 -19 69 -39 137 -39 70 0 133 25 133 52 0 7 21 24 46 38 109 57 193 164 234
295 16 54 21 95 21 180 -1 312 -146 512 -431 595 -93 27 -344 39 -459 21 -48
-8 -78 -8 -84 -2 -6 6 10 85 45 225 33 130 51 216 44 215 -6 0 -20 -4 -31 -8z"/>
<path d="M2196 1623 c-8 -16 -25 -40 -39 -55 -14 -15 -22 -30 -17 -33 4 -3 20
8 33 25 21 24 33 30 66 30 23 0 41 -2 41 -5 0 -22 -47 -89 -75 -108 -19 -12
-35 -25 -35 -29 0 -31 83 39 111 93 30 59 26 69 -25 69 -39 0 -44 2 -39 20 8
29 -4 25 -21 -7z"/>
<path d="M1967 1589 c-42 -57 -41 -83 1 -31 22 26 34 32 65 32 42 0 41 1 27
-35 -6 -15 -16 -25 -23 -22 -6 3 -20 8 -29 12 -10 4 -18 3 -18 -3 0 -5 9 -12
20 -15 30 -8 24 -24 -20 -56 -23 -16 -37 -32 -32 -35 5 -3 28 11 50 30 30 25
48 34 62 29 23 -7 28 10 5 19 -14 5 -14 9 0 35 25 50 20 61 -26 61 -32 0 -40
3 -35 15 11 30 -10 14 -47 -36z"/>
<path d="M2870 1545 l0 -95 41 0 c75 0 120 73 88 143 -14 30 -48 47 -94 47
l-35 0 0 -95z m103 53 c9 -11 17 -35 17 -53 0 -42 -26 -73 -67 -81 l-33 -6 0
79 c0 44 3 83 7 87 12 12 57 -3 76 -26z"/>
<path d="M2403 1614 c16 -9 32 -13 35 -9 9 9 -19 25 -43 24 -16 0 -15 -2 8
-15z"/>
<path d="M2530 1591 c0 -22 -76 -95 -118 -113 -23 -11 -40 -23 -37 -28 7 -12
71 19 111 54 37 31 68 83 54 91 -5 3 -10 1 -10 -4z"/>
<path d="M3040 1515 c0 -78 16 -87 22 -12 5 56 1 77 -13 77 -5 0 -9 -29 -9
-65z"/>
<path d="M3075 1570 c-3 -5 1 -10 9 -10 9 0 16 5 16 10 0 6 -4 10 -9 10 -6 0
-13 -4 -16 -10z"/>
<path d="M3140 1560 c-11 -11 -20 -31 -20 -45 0 -30 32 -65 60 -65 28 0 60 35
60 65 0 30 -32 65 -60 65 -11 0 -29 -9 -40 -20z m64 -6 c9 -8 16 -26 16 -39 0
-23 -23 -55 -40 -55 -17 0 -40 32 -40 55 0 23 23 55 40 55 5 0 16 -7 24 -16z"/>
<path d="M3260 1515 c0 -37 4 -65 10 -65 6 0 10 22 10 50 0 40 4 51 21 60 32
18 49 -4 49 -61 0 -27 5 -49 10 -49 17 0 12 97 -6 114 -18 19 -45 21 -62 4 -9
-9 -12 -9 -12 0 0 7 -4 12 -10 12 -6 0 -10 -28 -10 -65z"/>
<path d="M3425 1566 c-13 -9 -19 -26 -19 -51 0 -25 6 -42 19 -51 22 -16 61
-18 70 -4 4 7 -2 9 -18 5 -26 -7 -57 15 -57 41 0 10 13 14 45 14 49 0 53 5 29
38 -17 25 -42 28 -69 8z m53 -8 c20 -20 14 -28 -23 -28 -38 0 -46 13 -17 29
22 13 26 13 40 -1z"/>
<path d="M2379 1554 c18 -8 36 -12 39 -9 10 10 -21 25 -48 24 -23 -1 -22 -2 9
-15z"/>
<path d="M2570 1550 c0 -6 40 -10 100 -10 60 0 100 4 100 10 0 6 -40 10 -100
10 -60 0 -100 -4 -100 -10z"/>
</g>
</svg>
